<svg width="48" height="48" viewBox="0 0 48 48" fill="none" xmlns="http://www.w3.org/2000/svg">
<g id="Google + (Google Plus)">
<g id="Google + (Google Plus)_2">
<rect id="Rectangle" width="48" height="48" rx="24" fill="#EA4335"/>
<g id="Group">
<path id="Vector" d="M35.4517 19.3718C36.473 19.3718 37.4939 19.3718 38.5199 19.3718C38.5255 20.3983 38.5353 21.4299 38.5409 22.4559C39.5669 22.4662 40.5985 22.4713 41.625 22.4765C41.625 23.503 41.625 24.5238 41.625 25.5503C40.599 25.5555 39.5674 25.5606 38.5409 25.5657C38.5306 26.5973 38.5255 27.6234 38.5199 28.655C37.4939 28.6498 36.4669 28.655 35.4461 28.655C35.4362 27.6234 35.4362 26.5973 35.4255 25.5709C34.3995 25.5601 33.3679 25.5555 32.3414 25.5498C32.3414 24.5234 32.3414 23.5025 32.3414 22.476C33.3679 22.4709 34.3944 22.4657 35.4255 22.4555C35.4306 21.4299 35.4409 20.3983 35.4517 19.3718Z" fill="white"/>
<path id="Vector_2" d="M7.63163 24.0139C7.42008 18.4439 12.2989 13.2965 17.8745 13.2298C20.7162 12.9874 23.4809 14.0909 25.6314 15.8908C24.7493 16.8607 23.8517 17.8195 22.8929 18.7171C20.9997 17.5668 18.7202 16.6903 16.5075 17.4688C12.9387 18.485 10.7774 22.6988 12.0981 26.1901C13.1918 29.8365 17.627 31.8376 21.1029 30.3058C22.9027 29.6614 24.0894 28.0007 24.6101 26.2163C22.5473 26.1752 20.4841 26.2009 18.4213 26.1439C18.4162 24.9166 18.4111 23.694 18.4162 22.4667C21.8562 22.4615 25.3013 22.4513 28.7464 22.4821C28.9579 25.4891 28.5143 28.7073 26.5594 31.1208C23.8825 34.5659 18.9369 35.5769 14.9137 34.2254C10.6438 32.823 7.5387 28.5214 7.63163 24.0139Z" fill="white"/>
</g>
</g>
</g>
</svg>
